<mxfile host="app.diagrams.net" agent="Mozilla/5.0 (Windows NT 10.0; Win64; x64) AppleWebKit/537.36 (KHTML, like Gecko) Chrome/129.0.0.0 Safari/537.36" version="24.7.17">
  <diagram name="Page-1" id="eqi1fczyGDaJdwPScpwC">
    <mxGraphModel dx="2333" dy="1256" grid="0" gridSize="10" guides="1" tooltips="1" connect="1" arrows="1" fold="1" page="1" pageScale="1" pageWidth="1600" pageHeight="900" math="0" shadow="0">
      <root>
        <mxCell id="0" />
        <mxCell id="1" parent="0" />
        <mxCell id="7Q1-EGk1GcTPiAVf4JhG-2" value="" style="ellipse;whiteSpace=wrap;html=1;aspect=fixed;" vertex="1" parent="1">
          <mxGeometry x="83" y="372" width="50" height="50" as="geometry" />
        </mxCell>
        <mxCell id="7Q1-EGk1GcTPiAVf4JhG-11" style="edgeStyle=orthogonalEdgeStyle;rounded=0;orthogonalLoop=1;jettySize=auto;html=1;exitX=0.5;exitY=1;exitDx=0;exitDy=0;entryX=0;entryY=0.5;entryDx=0;entryDy=0;dashed=1;" edge="1" parent="1" source="7Q1-EGk1GcTPiAVf4JhG-3" target="7Q1-EGk1GcTPiAVf4JhG-10">
          <mxGeometry relative="1" as="geometry" />
        </mxCell>
        <mxCell id="7Q1-EGk1GcTPiAVf4JhG-12" style="edgeStyle=orthogonalEdgeStyle;rounded=0;orthogonalLoop=1;jettySize=auto;html=1;exitX=1;exitY=1;exitDx=0;exitDy=0;entryX=0;entryY=0.5;entryDx=0;entryDy=0;dashed=1;" edge="1" parent="1" source="7Q1-EGk1GcTPiAVf4JhG-3" target="7Q1-EGk1GcTPiAVf4JhG-9">
          <mxGeometry relative="1" as="geometry" />
        </mxCell>
        <mxCell id="7Q1-EGk1GcTPiAVf4JhG-13" style="edgeStyle=orthogonalEdgeStyle;rounded=0;orthogonalLoop=1;jettySize=auto;html=1;exitX=1;exitY=0;exitDx=0;exitDy=0;entryX=0;entryY=0.5;entryDx=0;entryDy=0;dashed=1;" edge="1" parent="1" source="7Q1-EGk1GcTPiAVf4JhG-3" target="7Q1-EGk1GcTPiAVf4JhG-8">
          <mxGeometry relative="1" as="geometry" />
        </mxCell>
        <mxCell id="7Q1-EGk1GcTPiAVf4JhG-14" style="edgeStyle=orthogonalEdgeStyle;rounded=0;orthogonalLoop=1;jettySize=auto;html=1;exitX=0.5;exitY=0;exitDx=0;exitDy=0;entryX=0;entryY=0.5;entryDx=0;entryDy=0;dashed=1;" edge="1" parent="1" source="7Q1-EGk1GcTPiAVf4JhG-3" target="7Q1-EGk1GcTPiAVf4JhG-7">
          <mxGeometry relative="1" as="geometry" />
        </mxCell>
        <mxCell id="7Q1-EGk1GcTPiAVf4JhG-3" value="" style="ellipse;whiteSpace=wrap;html=1;aspect=fixed;" vertex="1" parent="1">
          <mxGeometry x="198" y="372" width="50" height="50" as="geometry" />
        </mxCell>
        <mxCell id="7Q1-EGk1GcTPiAVf4JhG-5" style="edgeStyle=orthogonalEdgeStyle;rounded=0;orthogonalLoop=1;jettySize=auto;html=1;exitX=1;exitY=1;exitDx=0;exitDy=0;dashed=1;" edge="1" parent="1">
          <mxGeometry relative="1" as="geometry">
            <mxPoint x="386" y="532" as="targetPoint" />
            <mxPoint x="126" y="415" as="sourcePoint" />
            <Array as="points">
              <mxPoint x="126" y="532" />
            </Array>
          </mxGeometry>
        </mxCell>
        <mxCell id="7Q1-EGk1GcTPiAVf4JhG-21" style="edgeStyle=orthogonalEdgeStyle;rounded=0;orthogonalLoop=1;jettySize=auto;html=1;exitX=1;exitY=0;exitDx=0;exitDy=0;entryX=0;entryY=1;entryDx=0;entryDy=0;" edge="1" parent="1" source="7Q1-EGk1GcTPiAVf4JhG-6" target="7Q1-EGk1GcTPiAVf4JhG-16">
          <mxGeometry relative="1" as="geometry">
            <Array as="points">
              <mxPoint x="533" y="514" />
              <mxPoint x="533" y="299" />
            </Array>
          </mxGeometry>
        </mxCell>
        <mxCell id="7Q1-EGk1GcTPiAVf4JhG-6" value="2" style="ellipse;whiteSpace=wrap;html=1;aspect=fixed;" vertex="1" parent="1">
          <mxGeometry x="387" y="507" width="50" height="50" as="geometry" />
        </mxCell>
        <mxCell id="7Q1-EGk1GcTPiAVf4JhG-20" style="edgeStyle=orthogonalEdgeStyle;rounded=0;orthogonalLoop=1;jettySize=auto;html=1;exitX=1;exitY=0.5;exitDx=0;exitDy=0;entryX=0;entryY=0;entryDx=0;entryDy=0;" edge="1" parent="1" source="7Q1-EGk1GcTPiAVf4JhG-7" target="7Q1-EGk1GcTPiAVf4JhG-16">
          <mxGeometry relative="1" as="geometry">
            <Array as="points">
              <mxPoint x="437" y="232" />
              <mxPoint x="528" y="232" />
              <mxPoint x="528" y="263" />
            </Array>
          </mxGeometry>
        </mxCell>
        <mxCell id="7Q1-EGk1GcTPiAVf4JhG-7" value="1" style="ellipse;whiteSpace=wrap;html=1;aspect=fixed;" vertex="1" parent="1">
          <mxGeometry x="387" y="241" width="50" height="50" as="geometry" />
        </mxCell>
        <mxCell id="7Q1-EGk1GcTPiAVf4JhG-24" style="edgeStyle=orthogonalEdgeStyle;rounded=0;orthogonalLoop=1;jettySize=auto;html=1;exitX=1;exitY=0.5;exitDx=0;exitDy=0;entryX=0;entryY=0.5;entryDx=0;entryDy=0;" edge="1" parent="1" source="7Q1-EGk1GcTPiAVf4JhG-8" target="7Q1-EGk1GcTPiAVf4JhG-17">
          <mxGeometry relative="1" as="geometry" />
        </mxCell>
        <mxCell id="7Q1-EGk1GcTPiAVf4JhG-8" value="3" style="ellipse;whiteSpace=wrap;html=1;aspect=fixed;" vertex="1" parent="1">
          <mxGeometry x="387" y="306" width="50" height="50" as="geometry" />
        </mxCell>
        <mxCell id="7Q1-EGk1GcTPiAVf4JhG-25" style="edgeStyle=orthogonalEdgeStyle;rounded=0;orthogonalLoop=1;jettySize=auto;html=1;exitX=1;exitY=0.5;exitDx=0;exitDy=0;entryX=0;entryY=0.5;entryDx=0;entryDy=0;" edge="1" parent="1" source="7Q1-EGk1GcTPiAVf4JhG-9" target="7Q1-EGk1GcTPiAVf4JhG-18">
          <mxGeometry relative="1" as="geometry" />
        </mxCell>
        <mxCell id="7Q1-EGk1GcTPiAVf4JhG-9" value="4" style="ellipse;whiteSpace=wrap;html=1;aspect=fixed;" vertex="1" parent="1">
          <mxGeometry x="387" y="372" width="50" height="50" as="geometry" />
        </mxCell>
        <mxCell id="7Q1-EGk1GcTPiAVf4JhG-26" style="edgeStyle=orthogonalEdgeStyle;rounded=0;orthogonalLoop=1;jettySize=auto;html=1;exitX=1;exitY=0.5;exitDx=0;exitDy=0;entryX=0;entryY=0.5;entryDx=0;entryDy=0;" edge="1" parent="1" source="7Q1-EGk1GcTPiAVf4JhG-10" target="7Q1-EGk1GcTPiAVf4JhG-19">
          <mxGeometry relative="1" as="geometry" />
        </mxCell>
        <mxCell id="7Q1-EGk1GcTPiAVf4JhG-10" value="5" style="ellipse;whiteSpace=wrap;html=1;aspect=fixed;" vertex="1" parent="1">
          <mxGeometry x="387" y="442" width="50" height="50" as="geometry" />
        </mxCell>
        <mxCell id="7Q1-EGk1GcTPiAVf4JhG-16" value="101" style="ellipse;whiteSpace=wrap;html=1;aspect=fixed;" vertex="1" parent="1">
          <mxGeometry x="581" y="256" width="50" height="50" as="geometry" />
        </mxCell>
        <mxCell id="7Q1-EGk1GcTPiAVf4JhG-17" value="102" style="ellipse;whiteSpace=wrap;html=1;aspect=fixed;" vertex="1" parent="1">
          <mxGeometry x="581" y="322" width="50" height="50" as="geometry" />
        </mxCell>
        <mxCell id="7Q1-EGk1GcTPiAVf4JhG-18" value="103" style="ellipse;whiteSpace=wrap;html=1;aspect=fixed;" vertex="1" parent="1">
          <mxGeometry x="583" y="394" width="50" height="50" as="geometry" />
        </mxCell>
        <mxCell id="7Q1-EGk1GcTPiAVf4JhG-19" value="104" style="ellipse;whiteSpace=wrap;html=1;aspect=fixed;" vertex="1" parent="1">
          <mxGeometry x="583" y="472" width="50" height="50" as="geometry" />
        </mxCell>
        <mxCell id="7Q1-EGk1GcTPiAVf4JhG-23" value="&lt;span data-darkreader-inline-bgcolor=&quot;&quot; data-darkreader-inline-color=&quot;&quot; style=&quot;color: rgb(211, 207, 202); font-family: sans-serif; font-size: 14px; text-align: start; background-color: rgb(24, 26, 27); --darkreader-inline-color: #c9c5be; --darkreader-inline-bgcolor: #131516;&quot;&gt;âˆ¨&lt;/span&gt;" style="text;html=1;align=center;verticalAlign=middle;whiteSpace=wrap;rounded=0;" vertex="1" parent="1">
          <mxGeometry x="527" y="266" width="60" height="30" as="geometry" />
        </mxCell>
      </root>
    </mxGraphModel>
  </diagram>
</mxfile>
